<svg xmlns="http://www.w3.org/2000/svg" xmlns:xlink="http://www.w3.org/1999/xlink" viewBox="0 0 369.57 188.93"><defs><style>.cls-1{fill:none;}.cls-2{clip-path:url(#clip-path);}.cls-3{fill:#fff;}.cls-4{fill:#fcc298;}.cls-5{fill:#247e6f;}.cls-6{fill:#856f5c;}.cls-7{fill:#563738;}.cls-8{fill:#64c8d1;}.cls-9{fill:#dc5144;}.cls-10{fill:#3f3835;}.cls-11{fill:#4c2c2c;}.cls-12{clip-path:url(#clip-path-2);}.cls-13{font-size:6.95px;fill:#46566d;}.cls-13,.cls-30,.cls-38,.cls-40,.cls-44,.cls-46,.cls-54{font-family:Helvetica;}.cls-14{letter-spacing:0em;}.cls-15{letter-spacing:0.01em;}.cls-16{letter-spacing:0em;}.cls-17{letter-spacing:-0.01em;}.cls-18{letter-spacing:-0.01em;}.cls-19{letter-spacing:0em;}.cls-20{letter-spacing:-0.01em;}.cls-21{letter-spacing:0.01em;}.cls-22{letter-spacing:0.01em;}.cls-23{letter-spacing:-0.01em;}.cls-24{letter-spacing:-0.01em;}.cls-25{letter-spacing:0em;}.cls-26{letter-spacing:0em;}.cls-27{fill:#b5b7bb;}.cls-28{fill:#37869e;}.cls-29{fill:#d0d1d3;}.cls-30{font-size:3.6px;letter-spacing:0.01em;}.cls-31{letter-spacing:-0.01em;}.cls-32{letter-spacing:0em;}.cls-33{letter-spacing:2.56em;}.cls-34{letter-spacing:0em;}.cls-35{letter-spacing:-0.01em;}.cls-36{letter-spacing:2.56em;}.cls-37{letter-spacing:0em;}.cls-38,.cls-40,.cls-44{font-size:3.48px;}.cls-39,.cls-40{letter-spacing:-0.01em;}.cls-41{letter-spacing:0.01em;}.cls-42{letter-spacing:-0.01em;}.cls-43{letter-spacing:0em;}.cls-44{letter-spacing:0em;}.cls-45{letter-spacing:-0.01em;}.cls-46,.cls-54{font-size:3.85px;}.cls-47,.cls-54{letter-spacing:0em;}.cls-48{letter-spacing:-0.01em;}.cls-49{letter-spacing:3.61em;}.cls-50{letter-spacing:3.88em;}.cls-51{letter-spacing:-0.01em;}.cls-52{letter-spacing:4.12em;}.cls-53{letter-spacing:3.86em;}.cls-55{letter-spacing:0.01em;}.cls-56{letter-spacing:0em;}.cls-57{letter-spacing:-0.01em;}</style><clipPath id="clip-path" transform="translate(-70.87 -420.76)"><rect class="cls-1" width="595.28" height="841.89"/></clipPath><clipPath id="clip-path-2" transform="translate(-70.87 -420.76)"><rect class="cls-1" x="70.87" y="420.76" width="369.57" height="188.93"/></clipPath></defs><g id="Layer_2" data-name="Layer 2"><g id="Layer_1-2" data-name="Layer 1"><g class="cls-2"><rect class="cls-3" width="369.57" height="188.93"/><polygon class="cls-4" points="168.88 51.33 168.88 50.82 168.77 50.01 168.56 49.5 168.19 49.13 167.77 48.94 167.19 48.81 166.19 48.81 165.29 48.81 164.5 48.75 163.56 48.81 163.03 48.87 162.66 49.13 162.34 49.5 162.19 50.07 162.08 50.82 162.08 51.33 160.13 62.52 158.13 61.89 159.97 51.77 159.97 51.14 160.08 49.88 160.29 48.81 160.66 47.93 161.19 47.11 161.82 46.48 162.56 45.98 163.5 45.67 164.03 45.54 164.03 44.28 166.93 44.28 166.93 45.54 167.51 45.67 168.4 45.98 169.19 46.48 169.82 47.11 170.3 47.93 170.67 48.81 170.88 49.88 170.98 51.14 170.98 51.77 172.83 61.89 170.82 62.52 168.88 51.33"/><polygon class="cls-4" points="165.66 74.02 165.66 67.92 165.56 63.77 165.5 62.14 168.24 62.08 167.4 75.78 165.66 75.91 165.66 74.02"/><polygon class="cls-4" points="163.29 75.78 162.45 62.08 165.13 62.14 165.08 63.77 165.03 67.92 165.03 73.96 165.03 75.78 163.29 75.78"/><polygon class="cls-4" points="165.45 45.04 164.98 45.04 164.08 44.79 163.19 44.28 162.34 43.66 161.61 42.78 161.03 41.77 160.61 40.7 160.45 39.76 160.34 39.13 160.34 38.81 160.4 38.19 160.61 36.99 160.97 35.86 161.5 34.85 162.19 34.04 163.03 33.34 163.92 32.91 164.93 32.65 165.45 32.59 165.98 32.65 166.98 32.91 167.88 33.34 168.66 34.04 169.4 34.85 169.93 35.86 170.3 36.99 170.51 38.19 170.51 38.81 170.51 39.13 170.46 39.76 170.3 40.7 169.88 41.77 169.24 42.78 168.56 43.66 167.72 44.28 166.82 44.79 165.93 45.04 165.45 45.04"/><polygon class="cls-4" points="158.55 63.77 158.39 63.71 158.13 63.46 157.97 63.15 157.92 62.77 157.92 62.52 158.24 61.2 158.29 60.94 158.5 60.63 158.76 60.44 159.13 60.38 159.29 60.38 159.45 60.5 159.76 60.76 159.92 61.07 159.97 61.45 159.92 61.7 159.66 63.02 159.6 63.21 159.39 63.59 159.08 63.77 158.76 63.84 158.55 63.77"/><polygon class="cls-4" points="171.88 63.77 171.56 63.59 171.35 63.21 171.3 63.02 171.03 61.7 170.98 61.45 171.03 61.07 171.19 60.76 171.51 60.5 171.67 60.38 171.82 60.38 172.19 60.44 172.46 60.63 172.67 60.94 172.72 61.2 172.98 62.52 173.04 62.77 172.98 63.15 172.83 63.46 172.51 63.71 172.35 63.77 172.19 63.84 171.88 63.77"/><polygon class="cls-5" points="165.45 66.48 164.45 66.48 162.82 66.35 161.66 66.16 160.76 65.91 160.24 65.66 159.92 65.41 159.71 65.09 159.66 65.09 159.76 64.47 160.61 61.07 161.29 59 161.76 57.61 162.08 56.92 162.08 53.15 159.6 53.09 159.6 52.77 159.92 50.38 160.18 48.94 160.29 48.5 160.66 47.68 161.08 47.05 161.61 46.55 162.34 46.04 163.03 45.73 163.08 45.73 163.08 45.79 163.29 46.48 163.66 47.18 164.03 47.62 164.5 47.99 165.08 48.18 165.45 48.24 165.82 48.18 166.45 47.99 166.87 47.62 167.24 47.18 167.61 46.48 167.82 45.79 167.82 45.73 167.93 45.73 168.61 46.04 169.35 46.55 169.82 47.05 170.3 47.68 170.61 48.5 170.72 48.94 170.98 50.38 171.3 52.77 171.35 53.09 168.88 53.15 168.88 56.86 169.14 57.55 169.67 58.93 170.3 61.01 171.19 64.47 171.3 65.09 171.25 65.09 171.09 65.41 170.72 65.66 170.19 65.91 169.35 66.16 168.14 66.35 166.5 66.48 165.45 66.48"/><polygon class="cls-6" points="161.92 77.04 161.76 77.04 161.71 76.91 161.82 76.72 162.08 76.54 162.29 76.41 163.24 75.84 163.34 75.78 165.19 75.72 165.19 77.04 161.92 77.04"/><polygon class="cls-6" points="168.93 77.04 165.61 77.04 165.61 75.72 167.45 75.78 167.56 75.84 168.56 76.41 168.72 76.54 168.98 76.72 169.14 76.91 169.03 77.04 168.93 77.04"/><polygon class="cls-7" points="168.77 43.78 169.14 42.27 169.35 40.95 169.35 39.76 169.24 38.75 169.09 37.94 168.88 37.18 168.82 37.12 168.61 37.12 167.98 37.18 166.66 37.18 165.45 37.18 162.92 37.12 162.08 37.05 162.03 37.18 161.82 38.06 161.66 38.94 161.55 40.01 161.55 41.2 161.76 42.52 162.03 43.53 162.29 44.22 162.45 44.54 162.34 44.54 161.71 44.22 161.13 43.72 160.82 43.28 160.66 43.03 160.4 42.27 160.24 41.2 160.08 40.01 160.13 38.69 160.24 37.31 160.5 36.05 160.82 35.17 161.08 34.6 161.19 34.41 161.4 34.04 161.87 33.53 162.34 33.09 162.82 32.72 163.34 32.47 163.87 32.34 164.77 32.15 165.35 32.15 165.45 32.15 165.56 32.15 166.19 32.21 167.03 32.34 167.56 32.53 168.09 32.78 168.61 33.16 169.09 33.6 169.51 34.1 169.72 34.41 169.88 34.6 170.14 35.17 170.4 36.05 170.67 37.31 170.82 38.63 170.82 39.95 170.72 41.2 170.51 42.27 170.25 43.03 170.09 43.28 169.77 43.72 169.19 44.22 168.56 44.54 168.45 44.6 168.77 43.78"/><polygon class="cls-4" points="57.31 43.66 56.36 43.4 55.47 42.9 54.62 42.21 53.83 41.33 53.25 40.32 52.89 39.44 52.73 38.81 52.62 38.19 52.52 37.56 52.52 37.24 52.52 36.55 52.78 35.29 53.15 34.16 53.73 33.09 54.47 32.28 55.31 31.52 56.26 31.08 56.99 30.83 57.57 30.77 57.84 30.77 58.1 30.77 58.63 30.83 59.37 31.08 60.31 31.52 61.21 32.28 61.89 33.09 62.47 34.16 62.84 35.29 63.05 36.55 63.1 37.24 63.1 37.56 63.05 38.19 62.89 38.81 62.74 39.44 62.42 40.32 61.79 41.33 61.05 42.21 60.16 42.9 59.26 43.4 58.31 43.66 57.84 43.72 57.31 43.66"/><rect class="cls-4" x="56.2" y="43.22" width="3.11" height="1.89"/><polygon class="cls-4" points="64 64.91 63.79 64.91 63.47 64.72 63.21 64.4 63.05 64.03 63.05 63.77 63.05 63.02 62.74 63.02 61.84 51.14 61.84 50.57 61.68 49.69 61.42 49.06 61.05 48.56 60.52 48.31 59.89 48.18 58.73 48.06 57.78 48.06 57.73 47.93 56.78 47.93 55.63 48.06 54.99 48.24 54.52 48.56 54.1 49.06 53.83 49.75 53.73 50.63 53.73 51.26 53.47 56.73 52.83 63.02 52.31 63.02 52.31 63.77 52.31 64.03 52.15 64.4 51.88 64.72 51.52 64.91 51.3 64.91 51.15 64.91 50.78 64.72 50.52 64.4 50.36 64.03 50.36 63.77 50.36 63.27 50.52 62.08 51.62 51.64 51.73 50.82 51.99 49.31 52.41 47.99 52.83 47.11 53.15 46.61 53.52 46.17 53.94 45.79 54.41 45.48 54.89 45.16 55.47 44.91 56.05 44.79 57.05 44.6 57.73 44.6 57.78 44.6 58.52 44.6 59.47 44.79 60.1 44.91 60.63 45.16 61.16 45.48 61.58 45.79 62 46.17 62.37 46.61 62.68 47.11 62.95 47.68 63.16 48.31 63.42 49.31 63.63 50.82 63.63 51.7 65 62.45 65 63.27 65 63.77 64.95 64.03 64.84 64.4 64.53 64.72 64.21 64.91 64 64.91"/><polygon class="cls-8" points="59.21 76.28 57.73 61.95 56.31 76.16 54.68 76.16 54.15 57.68 61.42 57.68 60.79 76.28 59.21 76.28"/><polygon class="cls-9" points="62.63 61.83 61.63 52.52 61.42 60 54.1 59.88 54.04 52.33 52.99 61.83 50.52 61.83 51.15 56.1 51.88 49.75 51.94 49.25 52.25 48.31 52.57 47.43 53.04 46.67 53.57 46.05 54.2 45.54 54.94 45.1 55.73 44.85 56.2 44.72 57.05 45.98 57.78 47.24 59.47 44.72 59.84 44.85 60.58 45.1 61.21 45.42 61.79 45.92 62.31 46.42 62.73 46.99 63.1 47.68 63.37 48.43 63.53 48.87 63.63 49.56 64.05 53.27 64.9 60.32 65.05 61.83 62.63 61.83"/><polygon class="cls-10" points="52.57 77.61 52.41 77.61 52.36 77.48 52.52 77.23 52.83 76.98 52.99 76.85 53.73 76.47 54.62 76.1 54.73 76.1 56.31 76.1 56.41 77.61 52.57 77.61"/><polygon class="cls-10" points="63.05 77.61 59.15 77.61 59.21 76.22 60.79 76.22 60.89 76.22 61.58 76.47 62.26 76.72 62.63 76.91 62.84 77.04 63.16 77.29 63.31 77.48 63.21 77.61 63.05 77.61"/><polygon class="cls-11" points="63.1 37.49 62.89 37.24 62.31 36.8 60.47 35.73 55.99 33.41 54.99 32.91 54.94 33.16 54.68 33.72 54.1 34.73 52.83 36.61 52.57 36.93 52.52 36.49 52.52 35.55 52.57 34.73 52.73 34.04 52.94 33.34 53.2 32.78 53.68 32.02 53.94 31.71 53.73 31.59 53.25 31.52 53.04 31.59 53.15 31.52 53.83 31.33 54.31 31.33 54.47 31.14 54.57 31.08 54.68 30.77 54.83 30.27 55.05 29.76 55.1 29.64 55.05 29.89 54.99 30.39 54.99 30.7 55.31 30.45 55.89 30.08 56.52 29.82 57.15 29.7 57.78 29.7 58.42 29.82 59.31 30.01 59.79 30.2 60.16 30.33 60.79 30.7 61.37 31.14 61.84 31.71 62.21 32.28 62.47 32.84 62.84 33.78 63.1 35.04 63.16 36.17 63.16 37.43 63.16 37.56 63.1 37.49"/><g class="cls-12"><text class="cls-13" transform="translate(82.07 15.68) scale(1 1.19)">re<tspan class="cls-14" x="6.18" y="0">s</tspan><tspan class="cls-15" x="9.66" y="0">i</tspan><tspan class="cls-16" x="11.27" y="0">d</tspan><tspan x="15.1" y="0">en</tspan><tspan class="cls-14" x="22.83" y="0">t</tspan><tspan x="24.77" y="0">i</tspan><tspan class="cls-17" x="26.32" y="0"> </tspan><tspan class="cls-18" x="28.21" y="0">t</tspan><tspan class="cls-19" x="30.09" y="0">o</tspan><tspan class="cls-20" x="33.92" y="0">t</tspan><tspan class="cls-21" x="35.8" y="0">a</tspan><tspan class="cls-15" x="39.71" y="0">l</tspan><tspan x="41.31" y="0">i</tspan></text><text class="cls-13" transform="translate(258.74 15.3) scale(1 1.19)">re<tspan class="cls-14" x="6.18" y="0">s</tspan><tspan class="cls-22" x="9.67" y="0">i</tspan><tspan class="cls-23" x="11.27" y="0">d</tspan><tspan x="15.1" y="0">en</tspan><tspan class="cls-14" x="22.83" y="0">t</tspan><tspan x="24.77" y="0">i</tspan><tspan class="cls-24" x="26.32" y="0"> </tspan><tspan class="cls-20" x="28.21" y="0">s</tspan><tspan class="cls-25" x="31.63" y="0">t</tspan><tspan x="33.57" y="0">r</tspan><tspan class="cls-26" x="35.88" y="0">a</tspan><tspan x="39.73" y="0">n</tspan><tspan class="cls-22" x="43.6" y="0">i</tspan><tspan x="45.2" y="0">eri</tspan></text></g><polygon class="cls-4" points="323.53 50.32 323.48 49.82 323.37 49 323.16 48.43 322.79 48.12 322.37 47.93 321.79 47.8 320.79 47.8 319.89 47.8 319.95 47.8 319.1 47.74 318.16 47.8 317.63 47.87 317.26 48.12 316.94 48.5 316.79 49.06 316.68 49.82 316.68 50.32 314.73 61.51 312.78 60.88 314.57 50.76 314.57 50.13 314.73 48.87 314.94 47.8 315.26 46.86 315.79 46.11 316.42 45.48 317.15 44.98 318.1 44.66 318.63 44.47 318.63 43.28 321.58 43.28 321.58 44.47 322.11 44.66 323.06 44.98 323.79 45.48 324.42 46.11 324.9 46.86 325.27 47.8 325.48 48.87 325.58 50.13 325.58 50.76 327.43 60.88 325.43 61.51 323.53 50.32"/><polygon class="cls-4" points="320.32 73.02 320.26 66.92 320.16 62.77 320.11 61.13 322.84 61.07 322 74.78 320.26 74.9 320.32 73.02"/><polygon class="cls-4" points="317.89 74.78 317.05 61.07 319.79 61.13 319.74 62.77 319.63 66.85 319.63 72.95 319.63 74.78 317.89 74.78"/><polygon class="cls-4" points="320.05 44.03 319.58 44.03 318.68 43.78 317.79 43.28 317 42.65 316.26 41.77 315.63 40.76 315.21 39.7 315.05 38.75 315 38.12 314.94 37.81 315 37.18 315.21 35.99 315.57 34.85 316.1 33.85 316.84 33.03 317.63 32.34 318.52 31.9 319.52 31.65 320.05 31.59 320.58 31.65 321.58 31.9 322.48 32.34 323.32 33.03 324 33.85 324.53 34.85 324.95 35.99 325.11 37.18 325.16 37.81 325.16 38.12 325.06 38.75 324.9 39.7 324.48 40.76 323.85 41.77 323.16 42.65 322.32 43.28 321.42 43.78 320.53 44.03 320.05 44.03"/><polygon class="cls-4" points="313.2 62.77 313.05 62.7 312.73 62.45 312.57 62.14 312.52 61.7 312.57 61.51 312.84 60.19 312.89 59.94 313.1 59.62 313.36 59.44 313.73 59.37 313.89 59.37 314.1 59.5 314.36 59.69 314.52 60.06 314.57 60.44 314.57 60.69 314.26 62.01 314.21 62.2 314 62.58 313.68 62.77 313.36 62.83 313.2 62.77"/><polygon class="cls-4" points="326.48 62.77 326.16 62.58 326 62.2 325.9 62.01 325.64 60.69 325.64 60.44 325.64 60.06 325.85 59.69 326.11 59.5 326.27 59.37 326.43 59.37 326.8 59.44 327.06 59.62 327.27 59.94 327.32 60.19 327.58 61.51 327.64 61.7 327.58 62.14 327.43 62.45 327.11 62.7 326.95 62.77 326.8 62.83 326.48 62.77"/><polygon class="cls-5" points="320.11 65.47 319.1 65.47 317.42 65.35 316.26 65.16 315.36 64.91 314.84 64.65 314.52 64.4 314.31 64.09 314.31 64.03 314.42 63.46 315.21 60.06 315.89 57.99 316.37 56.61 316.68 55.91 316.68 52.14 314.21 52.08 314.26 51.77 314.52 49.38 314.79 47.93 314.89 47.49 315.26 46.67 315.68 46.05 316.21 45.54 316.94 45.04 317.63 44.72 317.68 44.72 317.68 44.79 317.89 45.48 318.26 46.17 318.63 46.61 319.1 46.99 319.74 47.18 320.05 47.24 320.42 47.18 321.05 46.99 321.53 46.61 321.9 46.17 322.21 45.48 322.42 44.79 322.48 44.72 322.53 44.72 323.21 45.04 323.95 45.54 324.43 46.05 324.9 46.67 325.27 47.49 325.37 47.93 325.58 49.38 325.9 51.77 325.95 52.08 323.48 52.14 323.48 55.85 323.79 56.54 324.27 57.93 324.95 60 325.79 63.46 325.9 64.03 325.9 64.09 325.69 64.4 325.37 64.65 324.79 64.91 323.95 65.16 322.74 65.35 321.11 65.47 320.11 65.47"/><polygon class="cls-6" points="316.52 76.03 316.37 76.03 316.31 75.91 316.42 75.72 316.68 75.47 316.89 75.4 317.84 74.84 317.94 74.78 319.79 74.71 319.79 76.03 316.52 76.03"/><polygon class="cls-6" points="323.53 76.03 320.21 76.03 320.21 74.71 322.05 74.78 322.16 74.84 323.16 75.4 323.32 75.47 323.63 75.72 323.74 75.91 323.63 76.03 323.53 76.03"/><polygon class="cls-7" points="323.37 42.78 323.74 41.27 323.95 39.95 323.95 38.75 323.85 37.75 323.69 36.93 323.53 36.17 323.48 36.11 323.27 36.11 322.63 36.17 321.26 36.17 320.05 36.17 317.58 36.11 316.68 36.05 316.63 36.17 316.42 37.05 316.26 37.94 316.15 39 316.15 40.2 316.37 41.52 316.63 42.52 316.89 43.22 317.05 43.53 316.94 43.53 316.37 43.22 315.79 42.71 315.47 42.27 315.26 42.02 315 41.27 314.84 40.2 314.73 39 314.73 37.68 314.84 36.3 315.1 35.04 315.42 34.16 315.68 33.6 315.84 33.41 316.05 33.03 316.47 32.47 316.94 32.02 317.42 31.71 317.94 31.46 318.52 31.33 319.37 31.14 319.95 31.14 320.05 31.14 320.21 31.14 320.79 31.21 321.63 31.33 322.21 31.52 322.74 31.77 323.21 32.15 323.69 32.53 324.11 33.09 324.32 33.41 324.48 33.6 324.74 34.16 325.06 35.04 325.32 36.3 325.43 37.62 325.43 38.94 325.32 40.2 325.11 41.27 324.85 42.02 324.69 42.27 324.37 42.71 323.79 43.22 323.16 43.53 323.11 43.59 323.37 42.78"/><polygon class="cls-4" points="252.42 42.4 251.94 42.4 251 42.08 250.05 41.64 249.2 40.95 248.47 40.07 247.84 39 247.52 38.19 247.31 37.56 247.2 36.93 247.15 36.24 247.15 35.92 247.15 35.29 247.36 34.04 247.78 32.84 248.31 31.84 249.05 30.96 249.89 30.27 250.84 29.76 251.63 29.57 252.16 29.51 252.42 29.45 252.68 29.51 253.21 29.57 254 29.76 254.95 30.27 255.79 30.96 256.53 31.84 257.05 32.84 257.48 34.04 257.69 35.29 257.69 35.92 257.69 36.24 257.63 36.93 257.53 37.56 257.37 38.19 257 39 256.37 40.07 255.63 40.95 254.79 41.64 253.84 42.08 252.89 42.4 252.42 42.4"/><rect class="cls-4" x="250.84" y="41.89" width="3.11" height="1.89"/><polygon class="cls-4" points="258.58 63.65 258.42 63.65 258.05 63.46 257.79 63.15 257.63 62.7 257.63 62.52 257.63 61.7 257.32 61.7 256.42 49.88 256.42 49.31 256.32 48.37 256.05 47.74 255.68 47.3 255.16 46.99 254.53 46.86 253.37 46.8 252.42 46.8 252.37 46.61 251.42 46.67 250.26 46.8 249.63 46.99 249.1 47.3 248.73 47.74 248.47 48.43 248.36 49.38 248.31 49.94 248.05 55.48 247.41 61.7 246.89 61.7 246.89 62.52 246.89 62.7 246.73 63.15 246.47 63.46 246.15 63.65 245.94 63.65 245.73 63.65 245.41 63.46 245.15 63.15 244.99 62.7 244.99 62.52 244.99 61.95 245.1 60.76 246.25 50.38 246.31 49.5 246.57 47.99 246.99 46.67 247.41 45.86 247.78 45.35 248.15 44.85 248.57 44.47 248.99 44.16 249.52 43.91 250.05 43.66 250.68 43.47 251.63 43.34 252.37 43.28 252.42 43.28 253.16 43.34 254.1 43.47 254.68 43.66 255.26 43.91 255.74 44.16 256.21 44.47 256.63 44.85 257 45.29 257.32 45.79 257.58 46.36 257.79 46.99 258.05 47.99 258.21 49.56 258.21 50.38 259.58 61.13 259.58 61.95 259.58 62.52 259.58 62.7 259.42 63.15 259.16 63.46 258.79 63.65 258.58 63.65"/><polygon class="cls-8" points="253.84 74.96 252.37 60.69 250.89 74.84 249.31 74.9 248.78 56.35 256.05 56.35 255.42 74.96 253.84 74.96"/><polygon class="cls-9" points="257.26 60.5 256.21 51.26 256.05 58.68 248.68 58.56 248.68 51.01 247.62 60.5 245.1 60.5 245.73 54.78 246.47 48.5 246.57 47.93 246.83 46.99 247.2 46.17 247.62 45.42 248.2 44.79 248.84 44.22 249.52 43.84 250.36 43.53 250.78 43.4 251.63 44.66 252.42 45.92 254.1 43.47 254.47 43.53 255.16 43.78 255.84 44.16 256.42 44.6 256.89 45.1 257.32 45.73 257.69 46.42 258 47.18 258.11 47.62 258.21 48.24 258.69 52.02 259.48 59 259.63 60.5 257.26 60.5"/><polygon class="cls-10" points="247.2 76.35 247.04 76.35 246.94 76.16 247.1 75.91 247.41 75.72 247.62 75.59 248.31 75.15 249.26 74.84 249.36 74.84 250.94 74.78 251 76.35 247.2 76.35"/><polygon class="cls-10" points="257.69 76.35 253.74 76.35 253.84 74.9 255.37 74.9 255.47 74.9 256.21 75.15 256.84 75.4 257.26 75.66 257.48 75.78 257.79 75.97 257.95 76.22 257.84 76.35 257.69 76.35"/><path class="cls-11" d="M320.54,449.14v.06l0,.09ZM328.6,457l-.21-.25-.58-.44L326,455.17l-4.53-2.33-.95-.5-.1.32-.27.56-.58,1-1.21,1.82-.31.38-.06-.5V455l.11-.81.1-.76.27-.63.26-.56.42-.76.32-.37-.26-.07-.43-.12-.21.06.06-.06.68-.19h.53l.1-.13.16-.12.05-.25.16-.51.22-.47v0l-.05.57.05.31.27-.31.63-.38.63-.19.63-.12h.63l.64.06.84.19.53.19.36.19.64.37.52.44.48.51.37.56.31.63.32,1,.26,1.25.11,1.07v1.26l-.06.19Z" transform="translate(-70.87 -420.76)"/><path class="cls-27" d="M171.74,461.27h0V465h0Zm-1,6.47h1v3.78h-1Zm-3.42,6.48h4.42V478h-4.42Zm-7.48,6.48h11.9v3.77h-11.9Zm-10.54,6.47h22.44V491H149.35Zm-4.11,6.48h26.55v3.83H145.24Zm-5.63,6.47h32.18V504H139.61Zm0,6.48h32.18v3.83H139.61Zm-6,6.47h38.14v3.84H133.65ZM123,519.55h48.78v3.83H123ZM117,526h54.78v3.84H117Zm-.63,6.48h55.41v3.83H116.38Zm3.79,6.47h51.62v3.84H120.17Zm5.37,6.48h46.25v3.83H125.54Zm.11,6.48h46.14v3.83H125.65Zm5.42,6.47h40.72v3.84H131.07Zm6.06,6.48h34.66v3.83H137.13Zm4.06,6.47h30.6v3.84h-30.6ZM140,577.83h31.76v3.83H140Zm-.11,6.47h31.87v3.84H139.92Zm2.27,6.54h29.6v3.77h-29.6Z" transform="translate(-70.87 -420.76)"/><path class="cls-28" d="M171.79,461.27h.37V465h-.37Zm0,6.47h3.64v3.78h-3.64Zm0,6.48h11.33V478H171.79Zm0,6.48H193v3.77H171.79Zm0,6.47H203.4V491H171.79Zm0,6.48h35v3.83h-35Zm0,6.47h39.35V504H171.79Zm0,6.48h38.82v3.83H171.79Zm0,6.47h43.46v3.84H171.79Zm0,6.48H224.1v3.83H171.79Zm0,6.47h58.52v3.84H171.79Zm0,6.48h58.52v3.83H171.79Zm0,6.47h51.89v3.84H171.79Zm0,6.48h46.78v3.83H171.79Zm0,6.48h44.35v3.83H171.79Zm0,6.47h39.14v3.84H171.79Zm0,6.48h30.92v3.83H171.79Zm0,6.47h28.45v3.84H171.79Zm0,6.48h30.55v3.83H171.79Zm0,6.47H202v3.84H171.79Zm0,6.54H199v3.77H171.79Z" transform="translate(-70.87 -420.76)"/><rect class="cls-29" x="37.61" y="175.18" width="126.58" height="0.06"/><path class="cls-29" d="M108.48,594.8h0v2.33h0Zm14.06,0h0v2.33h0Zm14.06,0h.06v2.33h-.06Zm14.07,0h.05v2.33h-.05Zm14.06,0h.06v2.33h-.06Zm14.07,0h0v2.33h0Zm14.06,0h0v2.33h0Zm14.07,0h0v2.33h0Zm14.06,0h0v2.33h0Zm14.06,0h.06v2.33h-.06Z" transform="translate(-70.87 -420.76)"/><rect class="cls-29" x="100.93" y="39.13" width="0.05" height="136.05"/><path class="cls-29" d="M170.68,459.89h1.11V460h-1.11Zm0,6.47h1.11v.06h-1.11Zm0,6.48h1.11v.06h-1.11Zm0,6.47h1.11v.07h-1.11Zm0,6.48h1.11v.06h-1.11Zm0,6.47h1.11v.07h-1.11Zm0,6.48h1.11v.06h-1.11Zm0,6.47h1.11v.07h-1.11Zm0,6.48h1.11v.06h-1.11Zm0,6.47h1.11v.07h-1.11Zm0,6.48h1.11v.06h-1.11Zm0,6.48h1.11v.06h-1.11Zm0,6.47h1.11v.06h-1.11Zm0,6.48h1.11v.06h-1.11Zm0,6.47h1.11v.07h-1.11Zm0,6.48h1.11v.06h-1.11Zm0,6.47h1.11v.07h-1.11Zm0,6.48h1.11V570h-1.11Zm0,6.47h1.11v.07h-1.11Zm0,6.48h1.11V583h-1.11Zm0,6.47h1.11v.07h-1.11Zm0,6.48h1.11v.06h-1.11Z" transform="translate(-70.87 -420.76)"/><text class="cls-30" transform="translate(34.55 180.94) scale(0.81 1.19)">9<tspan class="cls-31" x="2.05" y="0">0</tspan><tspan class="cls-32" x="4.03" y="0">0</tspan><tspan class="cls-33" x="6.04" y="0">0</tspan><tspan x="17.25" y="0">7</tspan><tspan class="cls-31" x="19.3" y="0">0</tspan><tspan x="21.28" y="0">0</tspan><tspan class="cls-33" x="23.33" y="0">0</tspan><tspan class="cls-34" x="34.54" y="0">5</tspan><tspan class="cls-35" x="36.56" y="0">0</tspan><tspan x="38.53" y="0">0</tspan><tspan class="cls-36" x="40.58" y="0">0</tspan><tspan x="51.8" y="0">3</tspan><tspan class="cls-35" x="53.85" y="0">0</tspan><tspan class="cls-32" x="55.82" y="0">0</tspan><tspan class="cls-36" x="57.83" y="0">0</tspan><tspan x="69.05" y="0">1</tspan><tspan class="cls-35" x="71.1" y="0">0</tspan><tspan x="73.08" y="0">0</tspan><tspan class="cls-36" x="75.12" y="0">0</tspan><tspan class="cls-32" x="86.34" y="0">1</tspan><tspan class="cls-31" x="88.35" y="0">0</tspan><tspan x="90.33" y="0">0</tspan><tspan class="cls-33" x="92.38" y="0">0</tspan><tspan x="103.6" y="0">3</tspan><tspan class="cls-31" x="105.64" y="0">0</tspan><tspan class="cls-32" x="107.62" y="0">0</tspan><tspan class="cls-33" x="109.63" y="0">0</tspan><tspan x="120.85" y="0">5</tspan><tspan class="cls-31" x="122.9" y="0">0</tspan><tspan x="124.88" y="0">0</tspan><tspan class="cls-33" x="126.92" y="0">0</tspan><tspan class="cls-34" x="138.14" y="0">7</tspan><tspan class="cls-35" x="140.15" y="0">0</tspan><tspan x="142.13" y="0">0</tspan><tspan class="cls-36" x="144.18" y="0">0</tspan><tspan x="155.4" y="0">9</tspan><tspan class="cls-35" x="157.44" y="0">0</tspan><tspan x="159.42" y="0">0</tspan><tspan class="cls-37" x="161.47" y="0">0</tspan></text><text class="cls-38" transform="translate(29.87 173.17) scale(1 1.19)"><tspan class="cls-39">0-</tspan><tspan x="3.05" y="0">4</tspan></text><text class="cls-38" transform="translate(29.87 166.69) scale(1 1.19)"><tspan class="cls-39">5-</tspan><tspan x="3.05" y="0">9</tspan></text><text class="cls-40" transform="translate(26.39 160.22) scale(1 1.19)">1<tspan class="cls-41" x="1.91" y="0">0</tspan><tspan class="cls-42" x="3.89" y="0">-1</tspan><tspan class="cls-43" x="6.94" y="0">4</tspan></text><text class="cls-40" transform="translate(26.39 153.74) scale(1 1.19)">1<tspan class="cls-41" x="1.91" y="0">5</tspan><tspan class="cls-42" x="3.89" y="0">-1</tspan><tspan class="cls-43" x="6.94" y="0">9</tspan></text><text class="cls-40" transform="translate(26.39 147.27) scale(1 1.19)">2<tspan class="cls-41" x="1.91" y="0">0</tspan><tspan class="cls-42" x="3.89" y="0">-2</tspan><tspan class="cls-43" x="6.94" y="0">4</tspan></text><text class="cls-40" transform="translate(26.39 140.79) scale(1 1.19)">2<tspan class="cls-41" x="1.91" y="0">5</tspan><tspan class="cls-42" x="3.89" y="0">-2</tspan><tspan class="cls-43" x="6.94" y="0">9</tspan></text><text class="cls-40" transform="translate(26.39 134.31) scale(1 1.19)">3<tspan class="cls-41" x="1.91" y="0">0</tspan><tspan class="cls-42" x="3.89" y="0">-3</tspan><tspan class="cls-43" x="6.94" y="0">4</tspan></text><text class="cls-40" transform="translate(26.39 127.84) scale(1 1.19)">3<tspan class="cls-41" x="1.91" y="0">5</tspan><tspan class="cls-42" x="3.89" y="0">-3</tspan><tspan class="cls-43" x="6.94" y="0">9</tspan></text><text class="cls-40" transform="translate(26.39 121.36) scale(1 1.19)">4<tspan class="cls-41" x="1.91" y="0">0</tspan><tspan class="cls-42" x="3.89" y="0">-4</tspan><tspan class="cls-43" x="6.94" y="0">4</tspan></text><text class="cls-40" transform="translate(26.39 114.89) scale(1 1.19)">4<tspan class="cls-41" x="1.91" y="0">5</tspan><tspan class="cls-42" x="3.89" y="0">-4</tspan><tspan class="cls-43" x="6.94" y="0">9</tspan></text><text class="cls-40" transform="translate(26.39 108.41) scale(1 1.19)">5<tspan class="cls-41" x="1.91" y="0">0</tspan><tspan class="cls-42" x="3.89" y="0">-5</tspan><tspan class="cls-43" x="6.94" y="0">4</tspan></text><text class="cls-40" transform="translate(26.39 101.94) scale(1 1.19)">5<tspan class="cls-41" x="1.91" y="0">5</tspan><tspan class="cls-42" x="3.89" y="0">-5</tspan><tspan class="cls-43" x="6.94" y="0">9</tspan></text><text class="cls-40" transform="translate(26.39 95.46) scale(1 1.19)">6<tspan class="cls-41" x="1.91" y="0">0</tspan><tspan class="cls-42" x="3.89" y="0">-6</tspan><tspan class="cls-43" x="6.94" y="0">4</tspan></text><text class="cls-40" transform="translate(26.39 88.99) scale(1 1.19)">6<tspan class="cls-41" x="1.91" y="0">5</tspan><tspan class="cls-42" x="3.89" y="0">-6</tspan><tspan class="cls-43" x="6.94" y="0">9</tspan></text><text class="cls-40" transform="translate(26.39 82.51) scale(1 1.19)">7<tspan class="cls-41" x="1.91" y="0">0</tspan><tspan class="cls-42" x="3.89" y="0">-7</tspan><tspan class="cls-43" x="6.94" y="0">4</tspan></text><text class="cls-40" transform="translate(26.39 76.03) scale(1 1.19)">7<tspan class="cls-41" x="1.91" y="0">5</tspan><tspan class="cls-42" x="3.89" y="0">-7</tspan><tspan class="cls-43" x="6.94" y="0">9</tspan></text><text class="cls-40" transform="translate(26.39 69.56) scale(1 1.19)">8<tspan class="cls-41" x="1.91" y="0">0</tspan><tspan class="cls-42" x="3.89" y="0">-8</tspan><tspan class="cls-43" x="6.94" y="0">4</tspan></text><text class="cls-40" transform="translate(26.39 63.08) scale(1 1.19)">8<tspan class="cls-41" x="1.91" y="0">5</tspan><tspan class="cls-42" x="3.89" y="0">-8</tspan><tspan class="cls-43" x="6.94" y="0">9</tspan></text><text class="cls-40" transform="translate(26.39 56.6) scale(1 1.19)">9<tspan class="cls-41" x="1.91" y="0">0</tspan><tspan class="cls-42" x="3.89" y="0">-9</tspan><tspan class="cls-43" x="6.94" y="0">4</tspan></text><text class="cls-40" transform="translate(26.39 50.13) scale(1 1.19)">9<tspan class="cls-41" x="1.91" y="0">5</tspan><tspan class="cls-42" x="3.89" y="0">-9</tspan><tspan class="cls-43" x="6.94" y="0">9</tspan></text><text class="cls-44" transform="translate(29.23 43.65) scale(1 1.19)">&gt;<tspan class="cls-45" x="2.03" y="0">9</tspan><tspan x="3.95" y="0">9</tspan></text><path class="cls-27" d="M356.31,478h.05v3.46h-.05Zm0,5.85h.05v3.39h-.05Zm-.31,5.78h.36v3.46H356Zm-.58,5.85h.94v3.39h-.94Zm-.43,5.85h1.37v3.39H355Zm-1.1,5.78h2.47v3.46h-2.47ZM351.78,513h4.58v3.39h-4.58Zm-3.9,5.78h8.48v3.46h-8.48Zm-5,5.85h13.48V528H342.88Zm-8.22,5.78h21.7v3.46h-21.7Zm-6.32,5.85h28v3.46h-28Zm-9.64,5.84h37.66v3.4H318.7Zm-5.79,5.79h43.45v3.46H312.91Zm-.69,5.85h44.14v3.39H312.22Zm7.59,5.78h36.55v3.46H319.81Zm8.11,5.85h28.44v3.45H327.92Zm11.27,5.84h17.17v3.4H339.19ZM337.45,577h18.91v3.46H337.45Zm-5.58,5.84h24.49v3.4H331.87ZM330,588.58h26.33V592H330Z" transform="translate(-70.87 -420.76)"/><path class="cls-28" d="M356.36,478h.06v3.46h-.06Zm0,5.85h.21v3.39h-.21Zm0,5.78h.74v3.46h-.74Zm0,5.85h1.48v3.39h-1.48Zm0,5.85h2.85v3.39h-2.85Zm0,5.78h5.75v3.46h-5.75Zm0,5.85h12.22v3.39H356.36Zm0,5.78h20.55v3.46H356.36Zm0,5.85h24.76V528H356.36Zm0,5.78h26.82v3.46H356.36Zm0,5.85h30.08v3.46H356.36Zm0,5.84h37.09v3.4H356.36Zm0,5.79h43.3v3.46h-43.3Zm0,5.85h42.25v3.39H356.36Zm0,5.78h34.45v3.46H356.36Zm0,5.85h21.07v3.45H356.36Zm0,5.84h14.75v3.4H356.36Zm0,5.79h18.07v3.46H356.36Zm0,5.84h23.08v3.4H356.36Zm0,5.79h24.92V592H356.36Z" transform="translate(-70.87 -420.76)"/><rect class="cls-29" x="237.77" y="172.41" width="95.45" height="0.06"/><path class="cls-29" d="M308.59,591.78h.05v2.9h-.05Zm21.7,0h0v2.9h0Zm21.7,0h.06v2.9H352Zm21.7,0h.06v2.9h-.06Zm21.71,0h.05v2.9h-.05Z" transform="translate(-70.87 -420.76)"/><rect class="cls-29" x="285.5" y="50.19" width="0.05" height="122.22"/><path class="cls-29" d="M355.15,470.89h1.21V471h-1.21Zm0,5.84h1.21v.07h-1.21Zm0,5.85h1.21v.06h-1.21Zm0,5.79h1.21v.06h-1.21Zm0,5.84h1.21v.06h-1.21Zm0,5.79h1.21v.06h-1.21Zm0,5.84h1.21v.07h-1.21Zm0,5.85h1.21v.06h-1.21Zm0,5.78h1.21v.07h-1.21Zm0,5.85h1.21v.06h-1.21Zm0,5.78h1.21v.07h-1.21Zm0,5.85h1.21V535h-1.21Zm0,5.85h1.21v.06h-1.21Zm0,5.78h1.21v.06h-1.21Zm0,5.85h1.21v.06h-1.21Zm0,5.78h1.21v.07h-1.21Zm0,5.85h1.21v.06h-1.21Zm0,5.85h1.21V570h-1.21Zm0,5.78h1.21v.06h-1.21Zm0,5.85h1.21v.06h-1.21Zm0,5.78h1.21v.06h-1.21Zm0,5.85h1.21v.06h-1.21Z" transform="translate(-70.87 -420.76)"/><g class="cls-12"><text class="cls-46" transform="translate(233.88 179.83) scale(1 1.19)"><tspan class="cls-47">2</tspan><tspan class="cls-48" x="2.15" y="0">2</tspan><tspan class="cls-47" x="4.26" y="0">0</tspan><tspan class="cls-49" x="6.41" y="0">0</tspan><tspan class="cls-47" x="22.45" y="0">12</tspan><tspan class="cls-48" x="26.74" y="0">0</tspan><tspan class="cls-50" x="28.86" y="0">0</tspan><tspan class="cls-47" x="45.93" y="0">2</tspan><tspan class="cls-51" x="48.08" y="0">0</tspan><tspan class="cls-52" x="50.19" y="0">0</tspan><tspan class="cls-47" x="68.18" y="0">80</tspan><tspan class="cls-53" x="72.48" y="0">0</tspan><tspan class="cls-51" x="89.48" y="0">1</tspan><tspan class="cls-47" x="91.59" y="0">80</tspan><tspan x="95.89" y="0">0</tspan></text><text class="cls-46" transform="translate(229.14 170.91) scale(1 1.19)"><tspan class="cls-47">0</tspan><tspan class="cls-48" x="2.15" y="0">-</tspan><tspan x="3.41" y="0">4</tspan></text><text class="cls-46" transform="translate(229.14 165.12) scale(1 1.19)"><tspan class="cls-47">5</tspan><tspan class="cls-48" x="2.15" y="0">-</tspan><tspan x="3.41" y="0">9</tspan></text><text class="cls-54" transform="translate(225.24 159.28) scale(1 1.19)">1<tspan class="cls-48" x="2.15" y="0">0</tspan><tspan x="4.26" y="0">-</tspan><tspan class="cls-55" x="5.56" y="0">1</tspan><tspan class="cls-56" x="7.74" y="0">4</tspan></text><text class="cls-54" transform="translate(225.24 153.43) scale(1 1.19)">1<tspan class="cls-48" x="2.15" y="0">5</tspan><tspan x="4.26" y="0">-</tspan><tspan class="cls-55" x="5.56" y="0">1</tspan><tspan class="cls-56" x="7.74" y="0">9</tspan></text><text class="cls-54" transform="translate(225.24 147.65) scale(1 1.19)">2<tspan class="cls-48" x="2.15" y="0">0</tspan><tspan x="4.26" y="0">-</tspan><tspan class="cls-55" x="5.56" y="0">2</tspan><tspan class="cls-56" x="7.74" y="0">4</tspan></text><text class="cls-54" transform="translate(225.24 141.8) scale(1 1.19)">2<tspan class="cls-48" x="2.15" y="0">5</tspan><tspan x="4.26" y="0">-</tspan><tspan class="cls-55" x="5.56" y="0">2</tspan><tspan class="cls-56" x="7.74" y="0">9</tspan></text><text class="cls-54" transform="translate(225.24 136.02) scale(1 1.19)">3<tspan class="cls-48" x="2.15" y="0">0</tspan><tspan x="4.26" y="0">-</tspan><tspan class="cls-55" x="5.56" y="0">3</tspan><tspan class="cls-56" x="7.74" y="0">4</tspan></text><text class="cls-54" transform="translate(225.24 130.17) scale(1 1.19)">3<tspan class="cls-48" x="2.15" y="0">5</tspan><tspan x="4.26" y="0">-</tspan><tspan class="cls-55" x="5.56" y="0">3</tspan><tspan class="cls-56" x="7.74" y="0">9</tspan></text><text class="cls-54" transform="translate(225.24 124.32) scale(1 1.19)">4<tspan class="cls-48" x="2.15" y="0">0</tspan><tspan x="4.26" y="0">-</tspan><tspan class="cls-55" x="5.56" y="0">4</tspan><tspan class="cls-56" x="7.74" y="0">4</tspan></text><text class="cls-54" transform="translate(225.24 118.54) scale(1 1.19)">4<tspan class="cls-48" x="2.15" y="0">5</tspan><tspan x="4.26" y="0">-</tspan><tspan class="cls-55" x="5.56" y="0">4</tspan><tspan class="cls-56" x="7.74" y="0">9</tspan></text><text class="cls-54" transform="translate(225.24 112.69) scale(1 1.19)">5<tspan class="cls-48" x="2.15" y="0">0</tspan><tspan x="4.26" y="0">-</tspan><tspan class="cls-55" x="5.56" y="0">5</tspan><tspan class="cls-56" x="7.74" y="0">4</tspan></text><text class="cls-54" transform="translate(225.24 106.9) scale(1 1.19)">5<tspan class="cls-48" x="2.15" y="0">5</tspan><tspan x="4.26" y="0">-</tspan><tspan class="cls-55" x="5.56" y="0">5</tspan><tspan class="cls-56" x="7.74" y="0">9</tspan></text><text class="cls-54" transform="translate(225.24 101.06) scale(1 1.19)">6<tspan class="cls-48" x="2.15" y="0">0</tspan><tspan x="4.26" y="0">-</tspan><tspan class="cls-55" x="5.56" y="0">6</tspan><tspan class="cls-56" x="7.74" y="0">4</tspan></text><text class="cls-54" transform="translate(225.24 95.21) scale(1 1.19)">6<tspan class="cls-48" x="2.15" y="0">5</tspan><tspan x="4.26" y="0">-</tspan><tspan class="cls-55" x="5.56" y="0">6</tspan><tspan class="cls-56" x="7.74" y="0">9</tspan></text><text class="cls-54" transform="translate(225.24 89.43) scale(1 1.19)">7<tspan class="cls-48" x="2.15" y="0">0</tspan><tspan x="4.26" y="0">-</tspan><tspan class="cls-55" x="5.56" y="0">7</tspan><tspan class="cls-56" x="7.74" y="0">4</tspan></text><text class="cls-54" transform="translate(225.24 83.58) scale(1 1.19)">7<tspan class="cls-48" x="2.15" y="0">5</tspan><tspan x="4.26" y="0">-</tspan><tspan class="cls-55" x="5.56" y="0">7</tspan><tspan class="cls-56" x="7.74" y="0">9</tspan></text><text class="cls-54" transform="translate(225.24 77.8) scale(1 1.19)">8<tspan class="cls-48" x="2.15" y="0">0</tspan><tspan x="4.26" y="0">-</tspan><tspan class="cls-55" x="5.56" y="0">8</tspan><tspan class="cls-56" x="7.74" y="0">4</tspan></text><text class="cls-54" transform="translate(225.24 71.95) scale(1 1.19)">8<tspan class="cls-48" x="2.15" y="0">5</tspan><tspan x="4.26" y="0">-</tspan><tspan class="cls-55" x="5.56" y="0">8</tspan><tspan class="cls-56" x="7.74" y="0">9</tspan></text><text class="cls-54" transform="translate(225.24 66.17) scale(1 1.19)">9<tspan class="cls-48" x="2.15" y="0">0</tspan><tspan x="4.26" y="0">-</tspan><tspan class="cls-55" x="5.56" y="0">9</tspan><tspan class="cls-56" x="7.74" y="0">4</tspan></text><text class="cls-54" transform="translate(225.24 60.32) scale(1 1.19)">9<tspan class="cls-48" x="2.15" y="0">5</tspan><tspan x="4.26" y="0">-</tspan><tspan class="cls-55" x="5.56" y="0">9</tspan><tspan class="cls-56" x="7.74" y="0">9</tspan></text><text class="cls-46" transform="translate(228.4 54.47) scale(1 1.19)"><tspan class="cls-57">&gt;</tspan><tspan class="cls-47" x="2.21" y="0">9</tspan><tspan x="4.36" y="0">9</tspan></text></g></g></g></g></svg>